#!OML:ASF H:\MichaelJackson\Top Level 1\Subject 1\Session 1\male.ASF
:FULLY-SPECIFIED
:DEGREES
1500
root -3.23541 16.7002 24.9101 -180.183 -196.233 -184.926
lowerback 3.48292 2.58966 -0.407018
upperback 0.864584 3.51817 4.4602
thorax -1.36872 1.77731 4.66102
lowerneck -5.97589 -6.68574 -0.0574733
upperneck 8.03278 -8.93651 -0.237855
head 3.64949 -4.43152 -0.514186
rclavicle 2.63887e-014 2.70347e-014
rhumerus -45.6063 -6.55741 -63.3586
rradius 61.0294
rwrist -5.84156
rhand -25.8108 -15.467
rfingers 7.12502
rthumb 0.728484 -45.4455
lclavicle 2.63887e-014 2.70347e-014
lhumerus -59.9191 9.08378 57.8305
lradius 56.1287
lwrist 27.0647
lhand -5.1627 14.5905
lfingers 7.12502
lthumb 20.6371 43.5134
rfemur -42.6447 -2.42302 3.43667
rtibia 92.5223
rfoot 43.7005 20.8038
rtoes 28.8837
lfemur -27.5228 -10.4133 -13.2411
ltibia 44.6185
lfoot -17.5765 -0.750657
ltoes 8.28115
1501
root -3.2095 16.7079 24.9448 -180.91 -196.596 -184.843
lowerback 4.08337 2.34301 -0.293988
upperback 1.11694 3.19649 4.47083
thorax -1.41183 1.61304 4.60662
lowerneck -5.97861 -6.66147 -0.0812994
upperneck 7.94685 -8.89904 -0.261082
head 3.61987 -4.41545 -0.513511
rclavicle -2.69353e-014 -1.59028e-014
rhumerus -45.9419 -6.38139 -63.1997
rradius 61.0811
rwrist -1.48766
rhand -29.2473 -17.0723
rfingers 7.12502
rthumb -2.59057 -47.0363
lclavicle -2.69353e-014 -1.59028e-014
lhumerus -59.4334 8.61645 57.511
lradius 55.5465
lwrist 25.6335
lhand -6.64494 13.7831
lfingers 7.12502
lthumb 19.2123 42.8541
rfemur -44.3674 0.411872 1.20832
rtibia 93.9135
rfoot 43.0982 20.3612
rtoes 29.0855
lfemur -26.3956 -10.5379 -13.6589
ltibia 44.1702
lfoot -17.5116 -0.856325
ltoes 7.76677
1502
root -3.18204 16.7249 24.9792 -181.614 -197.072 -184.721
lowerback 4.66885 2.06649 -0.164569
upperback 1.36855 2.83615 4.44346
thorax -1.44225 1.42942 4.51036
lowerneck -5.74026 -6.58018 -0.0513732
upperneck 7.61338 -8.78845 -0.27793
head 3.4548 -4.36388 -0.498749
rclavicle 4.47266e-014 -1.11319e-014
rhumerus -46.3083 -6.18102 -63.1006
rradius 61.1054
rwrist 3.08265
rhand -31.4755 -20.0175
rfingers 7.12502
rthumb -4.74231 -49.9445
lclavicle 4.47266e-014 -1.11319e-014
lhumerus -58.7235 8.20551 57.3183
lradius 54.8708
lwrist 24.2172
lhand -8.80776 13.1016
lfingers 7.12502
lthumb 17.1315 42.3663
rfemur -46.0202 3.25564 -1.2798
rtibia 94.4331
rfoot 43.223 17.79
rtoes 32.3266
lfemur -25.2712 -10.5594 -14.1333
ltibia 43.6913
lfoot -17.4497 -1.23697
ltoes 7.64934
1503
root -3.15571 16.7441 25.0132 -182.317 -197.746 -184.692
lowerback 5.24363 1.70212 0.047551
upperback 1.59602 2.3661 4.44338
thorax -1.48239 1.19164 4.40762
lowerneck -5.757 -6.55084 -0.0738222
upperneck 7.5591 -8.74266 -0.327282
head 3.43778 -4.34431 -0.507851
rclavicle -2.70844e-014 -4.6118e-014
rhumerus -46.7135 -5.87386 -63.0194
rradius 61.2318
rwrist 7.6514
rhand -33.1018 -23.0282
rfingers 7.12502
rthumb -6.31246 -52.9141
lclavicle -2.70844e-014 -4.6118e-014
lhumerus -57.846 8.18598 56.9809
lradius 53.9368
lwrist 22.2833
lhand -10.4104 11.7546
lfingers 7.12502
lthumb 15.5884 41.1464
rfemur -47.4018 5.70121 -3.68997
rtibia 94.0123
rfoot 42.9641 14.7396
rtoes 34.3424
lfemur -24.2232 -10.5158 -14.5124
ltibia 43.2183
lfoot -17.44 -1.88278
ltoes 7.45641
